Coordinates
version=1
nRows=12
nColumns=23
inDegrees=yes

Units are S.I. units (second, meters, Newtons, ...)
If the header above contains a line with 'inDegrees', this indicates whether rotational values are in degrees (yes) or radians (no).

endheader
time	pelvis_tilt	pelvis_list	pelvis_rotation	pelvis_tx	pelvis_ty	pelvis_tz	hip_flexion_r	hip_adduction_r	hip_rotation_r	knee_angle_r	knee_angle_r_beta	ankle_angle_r	subtalar_angle_r	mtp_angle_r	hip_flexion_l	hip_adduction_l	hip_rotation_l	knee_angle_l	knee_angle_l_beta	ankle_angle_l	subtalar_angle_l	mtp_angle_l
      0.00000000	     -2.00364879	      1.57318532	      1.10940422	      2.41195233	      0.97194469	      1.02788291	    -14.39631997	      3.43575437	      0.76036766	     21.52390564	      0.37566302	      9.69120736	     -1.89701933	      0.00000000	     41.46887337	      1.07691562	     -1.25030487	     89.15992382	      1.55613423	     -2.99419634	    -14.35258646	      0.00000000
      0.00666667	     -2.86715710	      2.39015195	      1.37950132	      2.41432371	      0.97581320	      1.02689286	    -15.94990425	      2.47101666	      0.80926565	     19.42998570	      0.33911722	      4.98352187	     -1.96209953	      0.00000000	     42.84848532	      2.29892584	     -1.90189166	     84.71795354	      1.47860722	     -2.98257661	    -15.14227131	      0.00000000
      0.01333333	     -3.83778348	      3.29546818	      1.58560374	      2.41661526	      0.97933539	      1.02596000	    -17.35320724	      1.41131054	      0.96029748	     17.38283462	      0.30338770	      0.26828804	     -1.99462786	      0.00000000	     44.03459778	      3.58808390	     -2.55711752	     79.96658138	      1.39568014	     -2.71516157	    -15.67154653	      0.00000000
      0.02000000	     -4.92972381	      4.25621407	      1.75084666	      2.41872469	      0.98242560	      1.02508476	    -18.34563803	      0.18127265	      0.59524484	     15.83821747	      0.27642904	     -4.14257005	     -1.19455008	      0.00000000	     45.09813296	      4.90084163	     -3.18818975	     74.96848073	      1.30844682	     -2.27190748	    -15.81314753	      0.00000000
      0.02666667	     -5.79694555	      5.19561616	      1.75526955	      2.42066593	      0.98563972	      1.02435586	    -19.51427319	     -0.94658990	      1.13044847	     14.31066526	      0.24976823	     -8.75990529	     -1.51537550	      0.00000000	     45.67161317	      6.09675225	     -3.79122351	     69.73168702	      1.21704753	     -1.80866861	    -15.82438697	      0.00000000
      0.03333333	     -6.81762677	      6.02455495	      1.74313263	      2.42229541	      0.98836303	      1.02373467	    -19.96154243	     -2.11125454	      0.88390282	     13.78474011	      0.24058910	    -12.76543988	     -0.76876171	      0.00000000	     46.25647672	      7.13223507	     -4.29746033	     64.38441210	      1.12371998	     -1.23597160	    -15.23113493	      0.00000000
      0.04000000	     -7.91414203	      6.62293590	      1.64797389	      2.42369136	      0.99074628	      1.02318525	    -19.92020909	     -3.06393168	      0.89671295	     13.94019210	      0.24330225	    -16.40774588	     -0.17419171	      0.00000000	     46.78678585	      7.89847832	     -4.63337801	     58.99203154	      1.02960518	     -0.59008636	    -14.31156476	      0.00000000
      0.04666667	     -8.29938933	      7.28382467	      1.50284259	      2.42499672	      0.99379009	      1.02275773	    -20.47104513	     -4.02374596	      0.94926397	     14.37696092	      0.25092530	    -19.90763936	     -0.09702153	      0.00000000	     46.34996675	      8.67170765	     -4.98674262	     53.43272093	      0.93257691	     -0.02033950	    -12.94609670	      0.00000000
      0.05333333	     -9.06053903	      7.61114263	      1.38938650	      2.42595586	      0.99598617	      1.02229695	    -20.06332937	     -4.67433673	      0.96411038	     15.83303198	      0.27633854	    -22.78492292	     -0.08564197	      0.00000000	     46.26569528	      9.16452068	     -5.07198508	     47.99941363	      0.83774781	      0.52710397	    -11.30921883	      0.00000000
      0.06000000	     -9.47080427	      7.84897010	      1.19697516	      2.42672446	      0.99820380	      1.02197206	    -19.67952928	     -5.21442855	      1.04298426	     17.95411914	      0.31335849	    -25.02088699	     -0.35228128	      0.00000000	     45.70935608	      9.51517870	     -5.15889634	     42.65402919	      0.74445325	      1.05650952	     -9.22487039	      0.00000000
      0.06666667	     -9.74076186	      8.00678614	      0.96682027	      2.42738255	      1.00009140	      1.02180599	    -19.12140448	     -5.64559523	      1.16435166	     20.72596821	      0.36173639	    -26.56203432	     -0.80746246	      0.00000000	     44.95005866	      9.70670904	     -5.37683711	     37.51537511	      0.65476682	      1.61228596	     -6.66274859	      0.00000000
      0.07333333	     -9.99936506	      8.03065723	      0.86868685	      2.42777736	      1.00146264	      1.02148041	    -18.34441584	     -5.84986912	      1.28801542	     24.00657928	      0.41899385	    -27.48993265	     -1.71231252	      0.00000000	     44.15265756	      9.95029890	     -5.22973109	     32.62369072	      0.56939082	      2.04662615	     -4.29773703	      0.00000000
